<?xml version="1.0" encoding="UTF-8" standalone="no"?>
<svg width="102px" height="86px" viewBox="0 0 102 86" version="1.1" xmlns="http://www.w3.org/2000/svg" xmlns:xlink="http://www.w3.org/1999/xlink">
    <!-- Generator: Sketch 39.1 (31720) - http://www.bohemiancoding.com/sketch -->
    <title>logo</title>
    <desc>Created with Sketch.</desc>
    <defs></defs>
    <g id="Page-1" stroke="none" stroke-width="1" fill="none" fill-rule="evenodd">
        <g id="logo" fill="#FFFFFF">
            <path d="M96.089,31.208375 C96.079,31.217375 96.068,31.224375 96.059,31.233375 L90.824,36.468375 L79.208,24.853375 L76.778,27.284375 L88.392,38.899375 L84.373,42.919375 L66.675,25.222375 C66.672,25.218375 66.669,25.214375 66.666,25.210375 L49.485,8.03037502 C46.779,5.32337502 42.376,5.32337502 39.668,8.02937502 L39.667,8.02937502 C37.119,10.578375 36.971,14.630375 39.221,17.355375 C39.305,17.560375 39.43,17.753375 39.597,17.920375 L65.916,44.237375 C67.282,45.604375 67.282,47.828375 65.916,49.194375 C65.254,49.856375 64.375,50.221375 63.439,50.221375 L63.438,50.221375 C62.502,50.221375 61.622,49.856375 60.96,49.194375 L53.105,41.339375 C51.793,40.028375 50.05,39.305375 48.195,39.306375 C46.34,39.306375 44.597,40.028375 43.286,41.339375 C40.58,44.045375 40.58,48.450375 43.286,51.157375 L65.299,73.170375 C65.961,73.831375 66.326,74.711375 66.326,75.647375 C66.326,76.583375 65.961,77.463375 65.298,78.126375 C63.932,79.492375 61.708,79.492375 60.341,78.126375 L37.548,55.332375 L19.454,37.238375 C19.429,37.214375 19.4,37.196375 19.375,37.174375 L18.215,36.014375 L14.723,39.506375 L14.739,39.522375 L4.122,50.139375 C4.075,50.186375 4.04,50.238375 4,50.289375 L6.403,52.692375 C6.453,52.652375 6.506,52.616375 6.552,52.570375 L11.788,47.335375 L23.403,58.950375 L25.833,56.519375 L14.218,44.904375 L18.238,40.884375 L37.929,60.575375 L57.911,80.557375 C59.264,81.911375 61.042,82.587375 62.82,82.587375 C64.598,82.587375 66.376,81.910375 67.729,80.557375 C69.041,79.245375 69.764,77.502375 69.764,75.647375 C69.764,73.793375 69.041,72.050375 67.73,70.738375 L45.717,48.727375 C44.351,47.360375 44.351,45.136375 45.717,43.770375 C46.379,43.108375 47.259,42.743375 48.196,42.743375 C49.132,42.743375 50.012,43.108375 50.675,43.770375 L58.529,51.625375 C59.84,52.936375 61.584,53.658375 63.437,53.658375 L63.439,53.658375 C65.293,53.658375 67.036,52.936375 68.347,51.625375 C71.053,48.919375 71.053,44.515375 68.347,41.806375 L42.42,15.882375 C42.339,15.715375 42.236,15.556375 42.098,15.418375 C40.731,14.052375 40.731,11.827375 42.098,10.460375 C43.465,9.09437502 45.688,9.09437502 47.055,10.460375 L62.242,25.647375 C62.245,25.651375 62.247,25.656375 62.251,25.659375 L80.875,44.283375 L80.874,44.284375 L84.363,47.772375 L85.487,46.648375 C85.521,46.619375 85.557,46.596375 85.588,46.565375 L98.489,33.664375 C98.499,33.655375 98.505,33.643375 98.514,33.633375 L96.089,31.208375 Z" id="Fill-1"></path>
        </g>
    </g>
</svg>